<svg xmlns="http://www.w3.org/2000/svg" width="24" height="24" viewBox="0 0 24 24" fill="none">
<g clip-path="url(#clip0_757_302)">
<path d="M13.0286 4.00123C13.7583 3.99843 14.488 4.00576 15.2176 4.02323L15.4116 4.03023C15.6356 4.03823 15.8566 4.04823 16.1236 4.06023C17.1876 4.11023 17.9136 4.27823 18.5506 4.52523C19.2106 4.77923 19.7666 5.12323 20.3226 5.67923C20.831 6.17884 21.2244 6.78318 21.4756 7.45023C21.7226 8.08723 21.8906 8.81423 21.9406 9.87823C21.9526 10.1442 21.9626 10.3662 21.9706 10.5902L21.9766 10.7842C21.9943 11.5134 22.002 12.2428 21.9996 12.9722L22.0006 13.7182V15.0282C22.003 15.758 21.9954 16.4877 21.9776 17.2172L21.9716 17.4112C21.9636 17.6352 21.9536 17.8562 21.9416 18.1232C21.8916 19.1872 21.7216 19.9132 21.4756 20.5502C21.2252 21.218 20.8317 21.8228 20.3226 22.3222C19.8225 22.8306 19.2179 23.224 18.5506 23.4752C17.9136 23.7222 17.1876 23.8902 16.1236 23.9402C15.8566 23.9522 15.6356 23.9622 15.4116 23.9702L15.2176 23.9762C14.4881 23.994 13.7583 24.0017 13.0286 23.9992L12.2826 24.0002H10.9736C10.2438 24.0027 9.5141 23.995 8.78458 23.9772L8.59058 23.9712C8.35319 23.9626 8.11585 23.9526 7.87858 23.9412C6.81458 23.8912 6.08858 23.7212 5.45058 23.4752C4.78326 23.2246 4.17881 22.8311 3.67958 22.3222C3.17062 21.8225 2.7768 21.2178 2.52558 20.5502C2.27858 19.9132 2.11058 19.1872 2.06058 18.1232C2.04944 17.8859 2.03944 17.6486 2.03058 17.4112L2.02558 17.2172C2.00714 16.4877 1.99881 15.758 2.00058 15.0282V12.9722C1.99779 12.2428 2.00512 11.5134 2.02258 10.7842L2.02958 10.5902C2.03758 10.3662 2.04758 10.1442 2.05958 9.87823C2.10958 8.81323 2.27758 8.08823 2.52458 7.45023C2.77595 6.78285 3.17054 6.17868 3.68058 5.68023C4.17947 5.17098 4.78354 4.7768 5.45058 4.52523C6.08858 4.27823 6.81358 4.11023 7.87858 4.06023L8.59058 4.03023L8.78458 4.02523C9.51376 4.0068 10.2432 3.99847 10.9726 4.00023L13.0286 4.00123ZM12.0006 9.00123C11.3381 8.99186 10.6803 9.11425 10.0656 9.3613C9.45077 9.60834 8.89122 9.97511 8.41942 10.4403C7.94762 10.9055 7.57298 11.4598 7.31726 12.071C7.06155 12.6822 6.92987 13.3382 6.92987 14.0007C6.92987 14.6633 7.06155 15.3192 7.31726 15.9305C7.57298 16.5417 7.94762 17.096 8.41942 17.5612C8.89122 18.0264 9.45077 18.3931 10.0656 18.6402C10.6803 18.8872 11.3381 19.0096 12.0006 19.0002C13.3267 19.0002 14.5984 18.4734 15.5361 17.5358C16.4738 16.5981 17.0006 15.3263 17.0006 14.0002C17.0006 12.6741 16.4738 11.4024 15.5361 10.4647C14.5984 9.52701 13.3267 9.00123 12.0006 9.00123ZM12.0006 11.0012C12.3991 10.9939 12.7951 11.066 13.1654 11.2134C13.5357 11.3608 13.8729 11.5806 14.1574 11.8598C14.4418 12.139 14.6678 12.4721 14.822 12.8396C14.9763 13.2071 15.0558 13.6016 15.0558 14.0002C15.0559 14.3988 14.9766 14.7934 14.8224 15.1609C14.6683 15.5285 14.4424 15.8617 14.1581 16.141C13.8737 16.4203 13.5366 16.6401 13.1663 16.7876C12.796 16.9352 12.4001 17.0074 12.0016 17.0002C11.2059 17.0002 10.4429 16.6842 9.88026 16.1216C9.31765 15.5589 9.00158 14.7959 9.00158 14.0002C9.00158 13.2046 9.31765 12.4415 9.88026 11.8789C10.4429 11.3163 11.2059 11.0002 12.0016 11.0002L12.0006 11.0012ZM17.2506 7.50123C16.928 7.51414 16.6229 7.65138 16.3992 7.8842C16.1755 8.11702 16.0506 8.42736 16.0506 8.75023C16.0506 9.0731 16.1755 9.38344 16.3992 9.61626C16.6229 9.84908 16.928 9.98632 17.2506 9.99923C17.5821 9.99923 17.9 9.86753 18.1345 9.63311C18.3689 9.39869 18.5006 9.08075 18.5006 8.74923C18.5006 8.41771 18.3689 8.09977 18.1345 7.86535C17.9 7.63093 17.5821 7.49923 17.2506 7.49923V7.50123Z" fill="#FFFFFA"/>
</g>
<defs>
<clipPath id="clip0_757_302">
<rect width="24" height="24" fill="white"/>
</clipPath>
</defs>
</svg>