<svg xmlns="http://www.w3.org/2000/svg" width="24" height="24" viewBox="0 0 24 24" fill="none">
<path d="M19 5C19.5304 5 20.0391 5.21071 20.4142 5.58579C20.7893 5.96086 21 6.46957 21 7V21C21 21.5304 20.7893 22.0391 20.4142 22.4142C20.0391 22.7893 19.5304 23 19 23H5C4.46957 23 3.96086 22.7893 3.58579 22.4142C3.21071 22.0391 3 21.5304 3 21V7C3 6.46957 3.21071 5.96086 3.58579 5.58579C3.96086 5.21071 4.46957 5 5 5H19ZM18.5 20.5V15.2C18.5 14.3354 18.1565 13.5062 17.5452 12.8948C16.9338 12.2835 16.1046 11.94 15.24 11.94C14.39 11.94 13.4 12.46 12.92 13.24V12.13H10.13V20.5H12.92V15.57C12.92 14.8 13.54 14.17 14.31 14.17C14.6813 14.17 15.0374 14.3175 15.2999 14.5801C15.5625 14.8426 15.71 15.1987 15.71 15.57V20.5H18.5ZM6.88 10.56C7.32556 10.56 7.75288 10.383 8.06794 10.0679C8.383 9.75288 8.56 9.32556 8.56 8.88C8.56 7.95 7.81 7.19 6.88 7.19C6.43178 7.19 6.00193 7.36805 5.68499 7.68499C5.36805 8.00193 5.19 8.43178 5.19 8.88C5.19 9.81 5.95 10.56 6.88 10.56ZM8.27 20.5V12.13H5.5V20.5H8.27Z" fill="#FFFFFA"/>
</svg>