<svg width="80" height="80" viewBox="0 0 80 80" fill="none" xmlns="http://www.w3.org/2000/svg">
<path fill-rule="evenodd" clip-rule="evenodd" d="M20.8263 55.0064C20.8263 53.6257 21.9456 52.5064 23.3263 52.5064H36.6652C38.0459 52.5064 39.1652 53.6257 39.1652 55.0064C39.1652 56.3871 38.0459 57.5064 36.6652 57.5064H23.3263C21.9456 57.5064 20.8263 56.3871 20.8263 55.0064Z" fill="#FF646E"/>
<path fill-rule="evenodd" clip-rule="evenodd" d="M60.1086 50.1113C61.085 51.0876 61.085 52.6705 60.1086 53.6468L53.854 59.9014C53.3851 60.3704 52.749 60.6338 52.0857 60.6337C51.4225 60.6335 50.7865 60.3699 50.3178 59.9007L46.5682 56.1479C45.5923 55.1712 45.593 53.5883 46.5697 52.6124C47.5464 51.6365 49.1293 51.6372 50.1052 52.6139L52.087 54.5974L56.5731 50.1113C57.5494 49.135 59.1323 49.135 60.1086 50.1113Z" fill="#FF646E"/>
<path fill-rule="evenodd" clip-rule="evenodd" d="M7.4873 23.3211C7.4873 14.5766 14.5761 7.48779 23.3206 7.48779H56.679C65.4235 7.48779 72.5123 14.5766 72.5123 23.3211V56.6795C72.5123 65.424 65.4235 72.5128 56.679 72.5128H23.3206C14.5761 72.5128 7.4873 65.424 7.4873 56.6795V23.3211ZM23.3206 12.4878C17.3376 12.4878 12.4873 17.338 12.4873 23.3211V56.6795C12.4873 62.6625 17.3375 67.5128 23.3206 67.5128H56.679C62.6621 67.5128 67.5123 62.6625 67.5123 56.6795V23.3211C67.5123 17.338 62.6621 12.4878 56.679 12.4878H23.3206Z" fill="#FF646E"/>
<path fill-rule="evenodd" clip-rule="evenodd" d="M20.8263 43.3348C20.8263 41.9541 21.9456 40.8348 23.3263 40.8348H50.0041C51.3848 40.8348 52.5041 41.9541 52.5041 43.3348C52.5041 44.7156 51.3848 45.8348 50.0041 45.8348H23.3263C21.9456 45.8348 20.8263 44.7156 20.8263 43.3348Z" fill="#FF646E"/>
<path fill-rule="evenodd" clip-rule="evenodd" d="M28.3285 19.1593C29.7092 19.1593 30.8285 20.2786 30.8285 21.6593V31.6635C30.8285 33.0442 29.7092 34.1635 28.3285 34.1635C26.9477 34.1635 25.8285 33.0442 25.8285 31.6635V21.6593C25.8285 20.2786 26.9477 19.1593 28.3285 19.1593Z" fill="#FF646E"/>
<path fill-rule="evenodd" clip-rule="evenodd" d="M20.8263 26.6617C20.8263 25.281 21.9456 24.1617 23.3263 24.1617H33.3305C34.7112 24.1617 35.8305 25.281 35.8305 26.6617C35.8305 28.0424 34.7112 29.1617 33.3305 29.1617H23.3263C21.9456 29.1617 20.8263 28.0424 20.8263 26.6617Z" fill="#FF646E"/>
</svg>
