<svg xmlns="http://www.w3.org/2000/svg" width="80" height="80" viewBox="0 0 80 80" fill="none">
  <path fill-rule="evenodd" clip-rule="evenodd" d="M26.0931 5.58138C23.9571 5.58138 22.2256 7.31305 22.2256 9.44918V13.317H43.2763V9.44918C43.2763 7.31305 41.5448 5.58138 39.4089 5.58138H26.0931ZM48.8572 9.44918C48.8572 4.23054 44.6271 0 39.4089 0H26.0931C20.8749 0 16.6447 4.23054 16.6447 9.44918V22.7661C16.6447 27.8118 18.9645 32.3156 22.5955 35.269L21.3478 40.2604C20.8169 40.2179 20.2781 40.2484 19.7465 40.3548L18.9441 40.5152C18.9045 40.5222 18.8653 40.5301 18.8263 40.5388L10.2729 42.249C10.2729 42.249 10.273 42.249 10.2729 42.249C4.29949 43.4431 0 48.6884 0 54.7801V56.0586C0 57.5998 1.24932 58.8493 2.79045 58.8493C4.33157 58.8493 5.58089 57.5998 5.58089 56.0586V54.7801C5.58089 51.3487 8.00261 48.3946 11.3668 47.7221L16.6447 46.6668V53.7441C13.392 54.8936 11.0615 57.9957 11.0615 61.6423C11.0615 66.2673 14.8105 70.0167 19.4352 70.0167C24.0598 70.0167 27.8088 66.2673 27.8088 61.6423C27.8088 57.9957 25.4783 54.8936 22.2256 53.7441V46.632C26.4422 49.1216 31.1027 50.0105 36.084 49.0218C37.5956 48.7218 38.5778 47.253 38.2778 45.7413C37.9778 44.2295 36.5092 43.2472 34.9976 43.5472C31.9945 44.1432 29.189 43.8125 26.5184 42.5888L27.6529 38.0502C29.2551 38.5845 30.9693 38.8738 32.751 38.8738C34.5437 38.8738 36.2681 38.5809 37.8787 38.0403L38.2227 39.3746C38.6075 40.867 40.1292 41.7649 41.6215 41.3801C43.1138 40.9953 44.0117 39.4735 43.6269 37.981L42.924 35.2547C46.545 32.3011 48.8572 27.8037 48.8572 22.7661V9.44918ZM43.2763 18.8983H22.2256V22.7661C22.2256 26.5184 24.1888 29.8121 27.1439 31.6761C27.2025 31.7094 27.2596 31.7446 27.3152 31.7818C28.9018 32.7407 30.7619 33.2924 32.751 33.2924C38.564 33.2924 43.2763 28.5797 43.2763 22.7661V18.8983ZM19.4352 58.8493C17.8928 58.8493 16.6424 60.0997 16.6424 61.6423C16.6424 63.1848 17.8928 64.4353 19.4352 64.4353C20.9776 64.4353 22.2279 63.1848 22.2279 61.6423C22.2279 60.0997 20.9776 58.8493 19.4352 58.8493Z" fill="#FFBEE6"/>
  <path fill-rule="evenodd" clip-rule="evenodd" d="M37.9275 58.2473C37.9275 46.6301 47.3432 37.2092 58.9638 37.2092C70.5843 37.2092 80 46.6301 80 58.2473C80 69.8648 70.5802 79.2853 58.9638 79.2853C57.4226 79.2853 56.1733 78.0359 56.1733 76.4946C56.1733 74.9534 57.4226 73.704 58.9638 73.704C67.498 73.704 74.4191 66.7822 74.4191 58.2473C74.4191 49.7119 67.5014 42.7906 58.9638 42.7906C50.4262 42.7906 43.5084 49.7119 43.5084 58.2473C43.5084 59.7885 42.2591 61.038 40.718 61.038C39.1769 61.038 37.9275 59.7885 37.9275 58.2473Z" fill="#FFBEE6"/>
  <path fill-rule="evenodd" clip-rule="evenodd" d="M40.7182 55.4568C42.2593 55.4568 43.5084 56.706 43.5084 58.2473C43.5084 60.5844 44.0258 62.7959 44.9487 64.7804C45.2023 65.3257 45.2729 65.9385 45.1501 66.5272L43.6764 73.5905L50.7198 72.0944C51.3101 71.969 51.9252 72.0383 52.4727 72.2921C54.4509 73.2088 56.652 73.7228 58.9825 73.7228C60.5237 73.7228 61.773 74.9722 61.773 76.5134C61.773 78.0547 60.5237 79.3041 58.9825 79.3041C56.1611 79.3041 53.4679 78.7472 51.0054 77.7396L40.6505 79.9391C39.7281 80.135 38.7691 79.8518 38.1012 79.1861C37.4332 78.5204 37.1465 77.5624 37.3392 76.6392L39.505 66.2585C38.4889 63.7857 37.9275 61.079 37.9275 58.2473C37.9275 56.706 39.177 55.4568 40.7182 55.4568Z" fill="#FFBEE6"/>
  <path fill-rule="evenodd" clip-rule="evenodd" d="M50.4712 58.4729C50.5438 58.5456 50.5438 58.6634 50.4712 58.736C50.3985 58.8087 50.2808 58.8087 50.2081 58.736C50.1355 58.6634 50.1355 58.5456 50.2081 58.4729C50.2808 58.4003 50.3985 58.4003 50.4712 58.4729Z" fill="#FFBEE6"/>
  <path fill-rule="evenodd" clip-rule="evenodd" d="M48.235 56.4996C49.3973 55.3371 51.2819 55.3371 52.4443 56.4996C53.6067 57.6621 53.6067 59.5468 52.4443 60.7093C51.2819 61.8718 49.3973 61.8718 48.235 60.7093C47.0726 59.5468 47.0726 57.6621 48.235 56.4996Z" fill="#FFBEE6"/>
  <path fill-rule="evenodd" clip-rule="evenodd" d="M58.8425 58.4729C58.9152 58.5456 58.9152 58.6634 58.8425 58.736C58.7699 58.8087 58.6521 58.8087 58.5794 58.736C58.5068 58.6634 58.5068 58.5456 58.5794 58.4729C58.6521 58.4003 58.7699 58.4003 58.8425 58.4729Z" fill="#FFBEE6"/>
  <path fill-rule="evenodd" clip-rule="evenodd" d="M56.6063 56.4996C57.7687 55.3371 59.6533 55.3371 60.8157 56.4996C61.9781 57.6621 61.9781 59.5468 60.8157 60.7093C59.6533 61.8718 57.7687 61.8718 56.6063 60.7093C55.4439 59.5468 55.4439 57.6621 56.6063 56.4996Z" fill="#FFBEE6"/>
  <path fill-rule="evenodd" clip-rule="evenodd" d="M67.2139 58.4729C67.2865 58.5456 67.2865 58.6634 67.2139 58.736C67.1412 58.8087 67.0234 58.8087 66.9508 58.736C66.8781 58.6634 66.8781 58.5456 66.9508 58.4729C67.0234 58.4003 67.1412 58.4003 67.2139 58.4729Z" fill="#FFBEE6"/>
  <path fill-rule="evenodd" clip-rule="evenodd" d="M64.9776 56.4996C66.14 55.3371 68.0246 55.3371 69.187 56.4996C70.3494 57.6621 70.3494 59.5468 69.187 60.7093C68.0246 61.8718 66.14 61.8718 64.9776 60.7093C63.8152 59.5468 63.8152 57.6621 64.9776 56.4996Z" fill="#FFBEE6"/>
</svg>