<svg xmlns="http://www.w3.org/2000/svg" width="73" height="81" viewBox="0 0 73 81" fill="none">
<path fill-rule="evenodd" clip-rule="evenodd" d="M42.3634 7.37604C38.4519 5.78348 34.0681 5.78348 30.1566 7.37604L9.43605 15.808C7.49073 16.5978 6.216 18.4831 6.216 20.5755V36.8084C6.216 53.8175 18.9792 69.8928 36.26 74.0946C53.5408 69.8928 66.304 53.8175 66.304 36.8084V20.5755C66.304 18.4859 65.0339 16.6027 63.0839 15.808L42.3634 7.37604ZM44.7181 1.65509C39.2976 -0.551698 33.2224 -0.551697 27.8019 1.65509L7.08429 10.0859C2.79754 11.8266 0 15.9756 0 20.5755V36.8084C0 57.0042 15.1871 75.7269 35.5784 80.2848C36.0272 80.3851 36.4928 80.3851 36.9416 80.2848C57.3329 75.7269 72.52 57.0042 72.52 36.8084V20.5755C72.52 15.9728 69.721 11.8313 65.439 10.0872L44.7181 1.65509Z" fill="#00CDE6"/>
<path fill-rule="evenodd" clip-rule="evenodd" d="M30.3051 30.9071C27.2567 30.9071 24.864 33.753 24.864 36.7096C24.864 39.8663 26.9683 43.0463 29.977 45.6594C31.4264 46.9182 32.9499 47.9216 34.2345 48.5957C34.8768 48.9328 35.422 49.1679 35.8361 49.3114C36.0467 49.3843 36.1851 49.4202 36.26 49.4375C36.3349 49.4202 36.4733 49.3843 36.6839 49.3114C37.098 49.1679 37.6432 48.9328 38.2855 48.5957C39.57 47.9216 41.0936 46.9182 42.5429 45.6594C45.5516 43.0463 47.656 39.8663 47.656 36.7096C47.656 33.7541 45.2601 30.9071 42.2149 30.9071C40.4106 30.9071 39.2798 31.7345 38.5846 32.5135C37.9948 33.1745 37.1486 33.5528 36.26 33.5528C35.3713 33.5528 34.5252 33.1745 33.9353 32.5135C33.2402 31.7345 32.1094 30.9071 30.3051 30.9071ZM18.648 36.7096C18.648 31.086 23.1178 24.7255 30.3051 24.7255C32.7786 24.7255 34.7514 25.4632 36.26 26.4274C37.7686 25.4632 39.7414 24.7255 42.2149 24.7255C49.3971 24.7255 53.872 31.085 53.872 36.7096C53.872 42.5162 50.1582 47.2527 46.6318 50.3154C44.8136 51.8945 42.8904 53.1687 41.1865 54.0628C40.3347 54.5099 39.5004 54.8815 38.7292 55.1488C38.0177 55.3953 37.1352 55.6336 36.26 55.6336C35.3848 55.6336 34.5023 55.3953 33.7908 55.1488C33.0196 54.8815 32.1853 54.5099 31.3335 54.0628C29.6296 53.1687 27.7064 51.8945 25.8882 50.3154C22.3618 47.2527 18.648 42.5162 18.648 36.7096Z" fill="#00CDE6"/>
</svg>