<svg xmlns="http://www.w3.org/2000/svg" width="73" height="73" viewBox="0 0 73 73" fill="none">
  <path fill-rule="evenodd" clip-rule="evenodd" d="M66.1674 37.3914C63.8469 35.0709 60.0847 35.0709 57.7642 37.3914C55.4438 39.7118 55.4438 43.474 57.7642 45.7944C60.0847 48.1149 63.8469 48.1149 66.1674 45.7944C68.4878 43.474 68.4878 39.7118 66.1674 37.3914ZM69.7672 33.7885C65.4576 29.4807 58.4718 29.4812 54.1629 33.7901C49.8535 38.0994 49.8535 45.0863 54.1629 49.3957C58.4723 53.7051 65.4593 53.7051 69.7687 49.3957C74.0781 45.0863 74.0766 38.0979 69.7672 33.7885C69.7677 33.7891 69.7667 33.788 69.7672 33.7885Z" fill="#FF78AA"/>
  <path fill-rule="evenodd" clip-rule="evenodd" d="M0 12.7324C0 7.57418 4.17899 3.39523 9.33729 3.39523H16.128C17.5345 3.39523 18.6746 4.53534 18.6746 5.94174C18.6746 7.34814 17.5345 8.48825 16.128 8.48825H9.33729C6.99181 8.48825 5.09307 10.387 5.09307 12.7324V26.3138C5.09307 36.1596 13.0729 44.1394 22.9188 44.1394C32.7647 44.1394 40.7445 36.1596 40.7445 26.3138V12.7324C40.7445 10.387 38.8458 8.48825 36.5003 8.48825H29.7096C28.3031 8.48825 27.163 7.34814 27.163 5.94174C27.163 4.53534 28.3031 3.39523 29.7096 3.39523H36.5003C41.6586 3.39523 45.8376 7.57418 45.8376 12.7324V26.3138C45.8376 38.9724 35.5775 49.2324 22.9188 49.2324C10.2601 49.2324 0 38.9724 0 26.3138V12.7324Z" fill="#FF78AA"/>
  <path fill-rule="evenodd" clip-rule="evenodd" d="M22.9188 44.1394C24.3252 44.1394 25.4653 45.2795 25.4653 46.6859V50.9301C25.4653 60.3073 33.0649 67.9069 42.4422 67.9069C51.8195 67.9069 59.4191 60.3073 59.4191 50.9301V50.0813C59.4191 48.6749 60.5592 47.5348 61.9657 47.5348C63.3721 47.5348 64.5122 48.6749 64.5122 50.0813V50.9301C64.5122 63.1201 54.6324 72.9999 42.4422 72.9999C30.2521 72.9999 20.3723 63.1201 20.3723 50.9301V46.6859C20.3723 45.2795 21.5124 44.1394 22.9188 44.1394Z" fill="#FF78AA"/>
  <path fill-rule="evenodd" clip-rule="evenodd" d="M16.128 -0.00012207C17.5345 -0.00012207 18.6746 1.13999 18.6746 2.54639V9.33709C18.6746 10.7435 17.5345 11.8836 16.128 11.8836C14.7216 11.8836 13.5815 10.7435 13.5815 9.33709V2.54639C13.5815 1.13999 14.7216 -0.00012207 16.128 -0.00012207Z" fill="#FF78AA"/>
  <path fill-rule="evenodd" clip-rule="evenodd" d="M29.7096 -0.00012207C31.116 -0.00012207 32.2561 1.13999 32.2561 2.54639V9.33709C32.2561 10.7435 31.116 11.8836 29.7096 11.8836C28.3031 11.8836 27.163 10.7435 27.163 9.33709V2.54639C27.163 1.13999 28.3031 -0.00012207 29.7096 -0.00012207Z" fill="#FF78AA"/>
</svg>